<svg xmlns="http://www.w3.org/2000/svg" width="300" height="56" viewBox="0 0 300 56" role="img" aria-label="C:\> DOKEY_">
  <defs>
    <filter id="glow" x="-10%" y="-20%" width="120%" height="140%">
      <feGaussianBlur stdDeviation="0.8" result="blur"/>
      <feMerge><feMergeNode in="blur"/><feMergeNode in="SourceGraphic"/></feMerge>
    </filter>
  </defs>
  <rect width="300" height="56" rx="3" fill="#07110d"/>
  <rect x="1" y="1" width="298" height="54" rx="2" fill="none" stroke="#1d3c2c" stroke-width="2"/>
  <path fill="#55f58a" filter="url(#glow)" transform="translate(32 14) scale(4)" d="M1 0h3v1h-3zM0 1h1v1h-1zM4 1h1v1h-1zM0 2h1v1h-1zM0 3h1v1h-1zM0 4h1v1h-1zM0 5h1v1h-1zM4 5h1v1h-1zM1 6h3v1h-3zM6 1h1v1h-1zM6 4h1v1h-1zM8 0h1v1h-1zM9 1h1v1h-1zM9 2h1v1h-1zM10 3h1v1h-1zM11 4h1v1h-1zM11 5h1v1h-1zM12 6h1v1h-1zM14 0h1v1h-1zM15 1h1v1h-1zM16 2h1v1h-1zM17 3h1v1h-1zM16 4h1v1h-1zM15 5h1v1h-1zM14 6h1v1h-1zM24 0h4v1h-4zM24 1h1v1h-1zM28 1h1v1h-1zM24 2h1v1h-1zM28 2h1v1h-1zM24 3h1v1h-1zM28 3h1v1h-1zM24 4h1v1h-1zM28 4h1v1h-1zM24 5h1v1h-1zM28 5h1v1h-1zM24 6h4v1h-4zM31 0h3v1h-3zM30 1h1v1h-1zM34 1h1v1h-1zM30 2h1v1h-1zM34 2h1v1h-1zM30 3h1v1h-1zM34 3h1v1h-1zM30 4h1v1h-1zM34 4h1v1h-1zM30 5h1v1h-1zM34 5h1v1h-1zM31 6h3v1h-3zM36 0h1v1h-1zM40 0h1v1h-1zM36 1h1v1h-1zM39 1h1v1h-1zM36 2h1v1h-1zM38 2h1v1h-1zM36 3h2v1h-2zM36 4h1v1h-1zM38 4h1v1h-1zM36 5h1v1h-1zM39 5h1v1h-1zM36 6h1v1h-1zM40 6h1v1h-1zM42 0h5v1h-5zM42 1h1v1h-1zM42 2h1v1h-1zM42 3h4v1h-4zM42 4h1v1h-1zM42 5h1v1h-1zM42 6h5v1h-5zM48 0h1v1h-1zM52 0h1v1h-1zM48 1h1v1h-1zM52 1h1v1h-1zM49 2h1v1h-1zM51 2h1v1h-1zM50 3h1v1h-1zM50 4h1v1h-1zM50 5h1v1h-1zM50 6h1v1h-1zM54 6h5v1h-5z"/>
</svg>
